<svg width="38" height="38" viewBox="0 0 38 38" fill="none" xmlns="http://www.w3.org/2000/svg">
<path d="M19 38C29.4934 38 38 29.4934 38 19C38 8.50659 29.4934 0 19 0C8.50659 0 0 8.50659 0 19C0 29.4934 8.50659 38 19 38Z" fill="#2B2E3A"/>
<path d="M14.9183 10.6415C11.0582 9.93854 8.00599 10.6743 6.78954 12.7813C5.88185 14.3535 6.14132 16.438 7.41892 18.6662C7.44415 18.7125 7.47836 18.7533 7.51956 18.7862C7.56075 18.819 7.6081 18.8434 7.65882 18.8577C7.70954 18.872 7.76261 18.8761 7.81492 18.8696C7.86724 18.8632 7.91773 18.8464 7.96346 18.8202C8.00918 18.7939 8.0492 18.7588 8.08119 18.7169C8.11317 18.6751 8.13646 18.6272 8.1497 18.5762C8.16294 18.5252 8.16586 18.472 8.15828 18.4198C8.15071 18.3677 8.13279 18.3176 8.10559 18.2724C6.9549 16.2652 6.73091 14.4663 7.47518 13.1772C8.48574 11.4269 11.2081 10.7705 14.7764 11.4204C14.8789 11.4375 14.984 11.4135 15.0691 11.3537C15.1541 11.2939 15.2122 11.2031 15.2309 11.1008C15.2495 10.9986 15.2272 10.8931 15.1687 10.8072C15.1102 10.7212 15.0202 10.6617 14.9183 10.6415ZM9.42624 21.3746C10.9871 23.0898 13.0149 24.6987 15.3275 26.0338C20.927 29.2667 26.8883 30.1308 29.8262 28.1276C29.8701 28.0988 29.9079 28.0615 29.9372 28.0178C29.9666 27.9742 29.987 27.9252 29.9972 27.8737C30.0074 27.8221 30.0072 27.769 29.9967 27.7175C29.9862 27.666 29.9655 27.6171 29.9359 27.5737C29.9063 27.5302 29.8683 27.4931 29.8242 27.4645C29.7801 27.4359 29.7307 27.4164 29.679 27.4071C29.6272 27.3978 29.5742 27.3989 29.5228 27.4103C29.4715 27.4217 29.423 27.4432 29.3801 27.4736C26.7507 29.2664 21.0881 28.4456 15.7234 25.3483C13.4799 24.053 11.5162 22.495 10.0118 20.8417C9.9769 20.803 9.93468 20.7716 9.88758 20.7493C9.84049 20.727 9.78945 20.7142 9.7374 20.7116C9.68534 20.7091 9.63329 20.7168 9.58424 20.7344C9.53519 20.752 9.49009 20.7792 9.45155 20.8142C9.413 20.8493 9.38176 20.8917 9.35962 20.9388C9.33748 20.986 9.32487 21.0371 9.32252 21.0892C9.32016 21.1412 9.32812 21.1932 9.34592 21.2422C9.36371 21.2912 9.39101 21.3362 9.42624 21.3746Z" fill="#9FEAF9"/>
<path d="M28.8889 20.8931C31.4165 17.9071 32.2989 14.9039 31.085 12.8015C30.1919 11.2543 28.3036 10.4374 25.794 10.4048C25.69 10.4049 25.5902 10.446 25.5162 10.5191C25.4423 10.5923 25.4 10.6915 25.3987 10.7955C25.3974 10.8995 25.437 10.9999 25.509 11.0749C25.5811 11.1499 25.6798 11.1936 25.7837 11.1964C28.0407 11.2258 29.6676 11.9295 30.3995 13.1973C31.4077 14.9437 30.6207 17.6218 28.2846 20.3816C28.2503 20.4212 28.2242 20.4671 28.2079 20.5169C28.1915 20.5666 28.1851 20.6191 28.1892 20.6713C28.1932 20.7235 28.2076 20.7744 28.2314 20.821C28.2553 20.8676 28.2881 20.9091 28.3281 20.9429C28.3681 20.9767 28.4143 21.0023 28.4643 21.0181C28.5142 21.0339 28.5667 21.0397 28.6189 21.0351C28.671 21.0304 28.7218 21.0155 28.7681 20.9911C28.8145 20.9667 28.8555 20.9334 28.8889 20.8931ZM22.3931 10.7734C20.1078 11.2631 17.6752 12.2205 15.3391 13.5692C9.55862 16.9065 5.78786 21.8276 6.31155 25.3959C6.31853 25.4479 6.33575 25.4979 6.36221 25.5431C6.38867 25.5883 6.42384 25.6278 6.46569 25.6594C6.50754 25.6909 6.55522 25.7138 6.60599 25.7268C6.65676 25.7397 6.70959 25.7425 6.76142 25.7349C6.81326 25.7272 6.86307 25.7094 6.90797 25.6824C6.95286 25.6554 6.99195 25.6198 7.02297 25.5775C7.05398 25.5353 7.07631 25.4873 7.08865 25.4364C7.10099 25.3855 7.1031 25.3326 7.09485 25.2809C6.6298 22.1126 10.2042 17.448 15.735 14.2548C18.0012 12.9463 20.3566 12.0193 22.5589 11.5475C22.6105 11.5373 22.6595 11.517 22.7031 11.4877C22.7467 11.4584 22.784 11.4207 22.8129 11.3769C22.8418 11.333 22.8617 11.2838 22.8714 11.2322C22.8811 11.1805 22.8805 11.1275 22.8695 11.0761C22.8585 11.0248 22.8373 10.9761 22.8073 10.933C22.7773 10.8898 22.7391 10.8531 22.6947 10.8249C22.6504 10.7968 22.6009 10.7777 22.5491 10.7688C22.4973 10.76 22.4443 10.7615 22.3931 10.7734Z" fill="#9FEAF9"/>
<path d="M13.0284 27.8696C14.35 31.5598 16.512 33.8319 18.9431 33.8319C20.7162 33.8319 22.3566 32.6232 23.6358 30.4954C23.6635 30.4508 23.6821 30.4012 23.6904 30.3493C23.6987 30.2975 23.6967 30.2446 23.6844 30.1936C23.6721 30.1426 23.6497 30.0945 23.6187 30.0522C23.5877 30.0099 23.5485 29.9742 23.5035 29.9472C23.4586 29.9201 23.4087 29.9023 23.3567 29.8947C23.3048 29.8872 23.2519 29.89 23.2011 29.903C23.1503 29.9161 23.1025 29.9391 23.0607 29.9708C23.0189 30.0024 22.9837 30.0421 22.9573 30.0875C21.8077 31.9998 20.3956 33.0402 18.9431 33.0402C16.9237 33.0402 14.9953 31.0137 13.7738 27.6029C13.7571 27.553 13.7305 27.5069 13.6958 27.4673C13.661 27.4277 13.6187 27.3955 13.5713 27.3725C13.5239 27.3495 13.4724 27.3362 13.4198 27.3333C13.3672 27.3305 13.3146 27.3382 13.265 27.3559C13.2154 27.3737 13.1699 27.4011 13.131 27.4367C13.0922 27.4723 13.0609 27.5152 13.0388 27.5631C13.0168 27.6109 13.0045 27.6627 13.0028 27.7153C13.001 27.768 13.0097 27.8204 13.0285 27.8696H13.0284ZM25.0996 27.1478C25.7839 24.9616 26.1513 22.4397 26.1513 19.8116C26.1513 13.2537 23.856 7.60065 20.5868 6.14908C20.4913 6.10908 20.3839 6.10809 20.2877 6.14632C20.1915 6.18455 20.114 6.25895 20.072 6.35358C20.03 6.44822 20.0267 6.55555 20.0629 6.65256C20.0991 6.74958 20.1719 6.82855 20.2656 6.87257C23.1813 8.16739 25.3595 13.5324 25.3595 19.8116C25.3595 22.3613 25.0037 24.8035 24.3442 26.9113C24.3278 26.9612 24.3215 27.0138 24.3256 27.0661C24.3297 27.1184 24.3442 27.1693 24.3682 27.216C24.3922 27.2627 24.4252 27.3041 24.4654 27.3379C24.5055 27.3716 24.552 27.3971 24.602 27.4128C24.6521 27.4284 24.7048 27.434 24.757 27.4291C24.8093 27.4243 24.86 27.4091 24.9063 27.3844C24.9526 27.3597 24.9936 27.3261 25.0268 27.2855C25.06 27.2449 25.0848 27.1981 25.0997 27.1478H25.0996ZM32.5547 26.7601C32.5547 25.7137 31.7065 24.8656 30.6602 24.8656C29.6139 24.8656 28.7657 25.7137 28.7657 26.7601C28.7657 27.8064 29.6139 28.6546 30.6602 28.6546C31.7065 28.6546 32.5547 27.8064 32.5547 26.7601ZM31.7631 26.7601C31.7631 26.9049 31.7346 27.0483 31.6791 27.1821C31.6237 27.3159 31.5425 27.4375 31.4401 27.5399C31.3377 27.6423 31.2161 27.7236 31.0823 27.779C30.9485 27.8344 30.805 27.863 30.6602 27.863C30.5154 27.863 30.372 27.8344 30.2381 27.779C30.1043 27.7236 29.9828 27.6423 29.8803 27.5399C29.7779 27.4375 29.6967 27.3159 29.6413 27.1821C29.5858 27.0483 29.5573 26.9049 29.5573 26.7601C29.5573 26.4676 29.6735 26.187 29.8803 25.9802C30.0872 25.7734 30.3677 25.6572 30.6602 25.6572C30.9527 25.6572 31.2332 25.7734 31.4401 25.9802C31.6469 26.187 31.7631 26.4676 31.7631 26.7601ZM7.19877 28.6546C8.24525 28.6546 9.09342 27.8064 9.09342 26.7601C9.09342 25.7137 8.2451 24.8656 7.19877 24.8656C6.15258 24.8656 5.30426 25.7137 5.30426 26.7601C5.30426 27.8064 6.15258 28.6546 7.19877 28.6546ZM7.19877 27.863C6.90626 27.863 6.62574 27.7468 6.41891 27.5399C6.21207 27.3331 6.09588 27.0526 6.09588 26.7601C6.09588 26.4676 6.21207 26.187 6.41891 25.9802C6.62574 25.7734 6.90626 25.6572 7.19877 25.6572C7.49127 25.6572 7.7718 25.7734 7.97863 25.9802C8.18546 26.187 8.30166 26.4676 8.30166 26.7601C8.30166 27.0526 8.18546 27.3331 7.97863 27.5399C7.7718 27.7468 7.49127 27.863 7.19877 27.863Z" fill="#9FEAF9"/>
<path d="M18.9432 8.08156C19.9895 8.08156 20.8377 7.23339 20.8377 6.18705C20.8377 5.14071 19.9895 4.29254 18.9432 4.29254C17.8968 4.29254 17.0486 5.14071 17.0486 6.18705C17.0486 7.23339 17.8968 8.08156 18.9432 8.08156ZM18.9432 7.28994C18.6506 7.28994 18.3701 7.17374 18.1633 6.96691C17.9565 6.76008 17.8403 6.47955 17.8403 6.18705C17.8403 5.89454 17.9565 5.61402 18.1633 5.40719C18.3701 5.20036 18.6506 5.08416 18.9432 5.08416C19.2357 5.08416 19.5162 5.20036 19.723 5.40719C19.9298 5.61402 20.046 5.89454 20.046 6.18705C20.046 6.47955 19.9298 6.76008 19.723 6.96691C19.5162 7.17374 19.2357 7.28994 18.9432 7.28994ZM19.2325 21.1513C18.4925 21.3112 17.7635 20.8409 17.6034 20.101C17.5267 19.7457 17.5942 19.3744 17.7912 19.0689C17.9882 18.7634 18.2984 18.5486 18.6537 18.4717C19.3937 18.3119 20.1226 18.7821 20.283 19.5221C20.4428 20.262 19.9726 20.9912 19.2325 21.1513Z" fill="#9FEAF9"/>
</svg>
